<?xml version="1.0" encoding="UTF-8" standalone="no"?>
<!-- Created with Inkscape (http://www.inkscape.org/) -->

<svg
   xmlns:dc="http://purl.org/dc/elements/1.1/"
   xmlns:cc="http://creativecommons.org/ns#"
   xmlns:rdf="http://www.w3.org/1999/02/22-rdf-syntax-ns#"
   xmlns:svg="http://www.w3.org/2000/svg"
   xmlns="http://www.w3.org/2000/svg"
   xmlns:sodipodi="http://sodipodi.sourceforge.net/DTD/sodipodi-0.dtd"
   xmlns:inkscape="http://www.inkscape.org/namespaces/inkscape"
   version="1.1"
   id="svg3699"
   xml:space="preserve"
   width="1102.7467"
   height="179.17332"
   viewBox="0 0 1102.7467 179.17332"
   sodipodi:docname="NW_Logo_Hor_PMS_Print.svg"
   inkscape:version="0.92.1 r15371"><metadata
     id="metadata3705"><rdf:RDF><cc:Work
         rdf:about=""><dc:format>image/svg+xml</dc:format><dc:type
           rdf:resource="http://purl.org/dc/dcmitype/StillImage" /><dc:title></dc:title></cc:Work></rdf:RDF></metadata><defs
     id="defs3703" /><sodipodi:namedview
     pagecolor="#ffffff"
     bordercolor="#666666"
     borderopacity="1"
     objecttolerance="10"
     gridtolerance="10"
     guidetolerance="10"
     inkscape:pageopacity="0"
     inkscape:pageshadow="2"
     inkscape:window-width="1855"
     inkscape:window-height="1056"
     id="namedview3701"
     showgrid="false"
     inkscape:zoom="1.5270959"
     inkscape:cx="551.37335"
     inkscape:cy="89.586662"
     inkscape:window-x="65"
     inkscape:window-y="24"
     inkscape:window-maximized="1"
     inkscape:current-layer="g3707" /><g
     id="g3707"
     inkscape:groupmode="layer"
     inkscape:label="ink_ext_XXXXXX"
     transform="matrix(1.3333333,0,0,-1.3333333,0,179.17333)"><g
       id="g3709"
       transform="scale(0.1)"><path
         d="M 8251.73,876.051 H 8116.69 L 8099.8,1025.4 c -1.47,13.05 -12.51,22.91 -25.64,22.91 l -150.36,0.04 c -10.42,0 -18.86,-8.44 -18.86,-18.86 V 876.051 l 1.33,-160.453 V 438.684 c 0,-35.153 3.92,-67.032 11.83,-95.594 7.9,-28.57 20.82,-53.18 38.81,-73.828 17.95,-20.692 41.86,-36.512 71.66,-47.473 29.79,-10.98 66.62,-16.488 110.48,-16.488 22.8,0 45.59,1.98 68.4,5.918 16.28,2.812 30.56,5.972 42.82,9.461 8.17,2.332 13.65,9.941 13.51,18.441 l -1.98,119.031 c -0.2,11.832 -11.09,20.289 -22.71,18.047 -2.35,-0.449 -4.79,-0.863 -7.32,-1.234 -11.83,-1.77 -23,-2.637 -33.53,-2.637 -30.69,0 -51.95,7.688 -63.78,23.106 -11.84,15.406 -17.77,38.5 -17.77,69.308 v 250.856 h 135.04 c 10.41,0 18.85,8.441 18.85,18.851 v 122.75 c 0,10.41 -8.44,18.852 -18.85,18.852"
         style="fill:#6ac32f;fill-opacity:1;fill-rule:nonzero;stroke:none"
         id="path3711"
         inkscape:connector-curvature="0" /><path
         d="m 2394.79,815.957 c -18.86,24.984 -43.62,45.371 -74.31,61.156 -29.83,15.321 -65.85,23.141 -108.05,23.586 l 0.13,0.082 c -0.67,0 -1.31,-0.039 -1.98,-0.043 -0.64,0.004 -1.25,0.043 -1.9,0.043 -2.33,0 -4.61,-0.168 -6.92,-0.234 -48.7,-1.18 -90.34,-10.234 -124.74,-27.383 -31.43,-15.672 -56.81,-32.633 -76.28,-50.84 l -12.7,41.746 c -3.31,10.868 -13.34,18.293 -24.7,18.293 l -143.52,0.008 c -10.42,0 -18.86,-8.441 -18.86,-18.855 V 246.25 c 0,-10.41 8.44,-18.852 18.86,-18.852 h 179.3 c 10.41,0 18.86,8.442 18.86,18.864 v 336.246 c 0,18.414 2.4,36.172 7.23,53.262 4.81,17.097 12.05,32.23 21.71,45.375 9.62,13.152 21.69,23.453 36.16,30.91 14.47,7.437 31.35,11.175 50.64,11.175 19.28,0 35.27,-3.738 48,-11.175 12.7,-7.457 22.56,-17.555 29.6,-30.25 7.01,-12.727 12.04,-27.418 15.11,-44.055 3.08,-16.676 4.61,-34.199 4.61,-52.617 V 246.25 c 0,-10.41 8.44,-18.852 18.86,-18.852 h 179.3 c 10.42,0 18.86,8.442 18.86,18.852 v 386.234 c 0,32.422 -4.17,64.875 -12.5,97.329 -8.34,32.421 -21.93,61.156 -40.77,86.144"
         style="fill:#6ac32f;fill-opacity:1;fill-rule:nonzero;stroke:none"
         id="path3713"
         inkscape:connector-curvature="0" /><path
         d="m 4013.28,402.324 c -19.31,9.637 -35.52,22.36 -48.66,38.145 -13.16,15.777 -23.02,33.969 -29.61,54.578 -6.55,20.586 -9.84,41.426 -9.84,62.469 0,21.05 3.29,41.636 9.84,61.82 6.59,20.152 16.45,37.91 29.61,53.262 13.14,15.332 29.35,27.824 48.66,37.484 19.26,9.633 41.64,14.465 67.08,14.465 24.55,0 46.45,-4.832 65.76,-14.465 19.27,-9.66 35.7,-22.355 49.32,-38.141 13.58,-15.785 24.1,-33.765 31.57,-53.921 7.44,-20.18 11.18,-40.778 11.18,-61.821 0,-21.043 -3.74,-41.648 -11.18,-61.812 -7.47,-20.18 -17.99,-38.141 -31.57,-53.918 -13.62,-15.785 -30.05,-28.508 -49.32,-38.145 -19.31,-9.66 -41.21,-14.469 -65.76,-14.469 -25.44,0 -47.82,4.809 -67.08,14.469 z m 412.54,736.166 h -177.99 c -10.41,0 -18.85,-8.44 -18.85,-18.85 V 812.664 h -2.63 c -18.42,21.91 -44.29,42.082 -77.6,60.5 -33.33,18.41 -74.1,27.617 -122.31,27.617 -47.34,0 -90.09,-9.207 -128.25,-27.617 -38.13,-18.418 -70.59,-43.398 -97.32,-74.965 -26.76,-31.562 -47.34,-68.183 -61.81,-109.816 -14.47,-41.656 -21.71,-85.285 -21.71,-130.867 0,-45.602 7.02,-89.434 21.05,-131.52 14.02,-42.082 34.4,-79.133 61.16,-111.137 26.74,-32.007 59.39,-57.66 97.98,-76.937 38.58,-19.274 82.41,-28.934 131.52,-28.934 5.93,0 11.8,0.192 17.64,0.524 51.22,1.109 94.98,10.539 131.08,28.539 31.09,15.508 56.46,32.238 76.31,50.129 l 13.93,-42.93 c 3.45,-10.641 13.36,-17.852 24.55,-17.852 h 133.25 c 10.41,0 18.85,8.442 18.85,18.852 v 873.39 c 0,10.41 -8.44,18.85 -18.85,18.85"
         style="fill:#6ac32f;fill-opacity:1;fill-rule:nonzero;stroke:none"
         id="path3715"
         inkscape:connector-curvature="0" /><path
         d="m 5606.72,882.371 h -182.73 c -8.48,0 -15.91,-5.66 -18.17,-13.836 L 5295.21,468.082 h -2.62 l -117.04,400.723 c -2.35,8.039 -9.72,13.566 -18.1,13.566 h -188.61 c -8.44,0 -15.85,-5.605 -18.14,-13.726 L 4837.52,468.082 h -3.94 l -109.33,400.402 c -2.23,8.196 -9.68,13.887 -18.19,13.887 h -191.92 c -12.95,0 -22.05,-12.766 -17.82,-25.008 l 213.19,-617.261 c 2.62,-7.602 9.78,-12.704 17.82,-12.704 H 4917 c 8.27,0 15.57,5.391 18.02,13.282 l 122.15,394.433 h 2.64 L 5184.52,240.57 c 2.48,-7.84 9.76,-13.172 17.98,-13.172 h 189.79 c 8.03,0 15.17,5.082 17.81,12.672 l 214.42,617.262 c 4.26,12.25 -4.84,25.039 -17.8,25.039"
         style="fill:#6ac32f;fill-opacity:1;fill-rule:nonzero;stroke:none"
         id="path3717"
         inkscape:connector-curvature="0" /><path
         d="m 6692.59,1138.49 h -181.94 c -10.41,0 -18.85,-8.44 -18.85,-18.85 V 246.25 c 0,-10.41 8.44,-18.852 18.85,-18.852 h 181.94 c 10.41,0 18.85,8.442 18.85,18.852 v 873.39 c 0,10.41 -8.44,18.85 -18.85,18.85"
         style="fill:#6ac32f;fill-opacity:1;fill-rule:nonzero;stroke:none"
         id="path3719"
         inkscape:connector-curvature="0" /><path
         d="m 7052.86,1138.49 h -181.93 c -10.41,0 -18.86,-8.44 -18.86,-18.85 V 246.25 c 0,-10.41 8.45,-18.852 18.86,-18.852 h 181.93 c 10.42,0 18.85,8.442 18.85,18.852 v 873.39 c 0,10.41 -8.43,18.85 -18.85,18.85"
         style="fill:#6ac32f;fill-opacity:1;fill-rule:nonzero;stroke:none"
         id="path3721"
         inkscape:connector-curvature="0" /><path
         d="m 5873.31,440.469 c -13.15,15.777 -23.02,33.969 -29.61,54.578 -6.54,20.586 -9.84,41.426 -9.84,62.469 0,21.05 3.3,41.636 9.84,61.82 6.59,20.152 16.46,37.91 29.61,53.262 13.15,15.332 29.36,27.824 48.66,37.484 19.27,9.633 41.64,14.465 67.09,14.465 24.54,0 46.45,-4.832 65.75,-14.465 19.27,-9.66 35.7,-22.355 49.33,-38.141 13.58,-15.785 24.09,-33.765 31.56,-53.921 7.45,-20.18 11.19,-40.778 11.19,-61.821 0,-21.043 -3.74,-41.648 -11.19,-61.812 -7.47,-20.18 -17.98,-38.141 -31.56,-53.918 -13.63,-15.785 -30.06,-28.508 -49.33,-38.145 -19.3,-9.66 -41.21,-14.469 -65.75,-14.469 -25.45,0 -47.82,4.809 -67.09,14.469 -19.3,9.637 -35.51,22.36 -48.66,38.145 z m 461.21,464.293 -150.31,0.031 c -11.44,0 -21.51,-7.523 -24.76,-18.492 l -17.56,-59.363 c -18.74,16.464 -42.42,31.886 -71.17,46.226 -36.93,18.41 -82.11,27.617 -135.54,27.617 h -0.05 c -47.34,0 -90.09,-9.207 -128.25,-27.617 -38.13,-18.418 -70.59,-43.398 -97.31,-74.965 -26.76,-31.562 -47.34,-68.183 -61.81,-109.816 -14.48,-41.656 -21.71,-85.285 -21.71,-130.867 0,-45.602 7.01,-89.434 21.04,-131.52 14.03,-42.082 34.4,-79.133 61.17,-111.137 26.74,-32.007 59.38,-57.66 97.97,-76.937 38.59,-19.274 82.41,-28.934 131.53,-28.934 11.31,0 22.45,0.621 33.44,1.821 40.16,3.339 75.22,12.371 105.05,27.242 35.34,17.621 63.33,36.82 84.14,57.531 l 16.32,-50.32 c 3.46,-10.641 13.37,-17.84 24.55,-17.84 l 133.25,-0.024 c 10.42,0 18.86,8.442 18.86,18.852 v 639.66 c 0,10.41 -8.44,18.852 -18.85,18.852"
         style="fill:#6ac32f;fill-opacity:1;fill-rule:nonzero;stroke:none"
         id="path3723"
         inkscape:connector-curvature="0" /><path
         d="m 3694.25,898.938 -1.58,0.308 2.45,1.535 c -5.45,0 -10.75,-0.16 -16.02,-0.351 -4.35,0.23 -8.75,0.351 -13.21,0.351 -28.4,0 -54.35,-5.367 -77.96,-15.867 -9.93,-3.383 -19.4,-7.285 -28.36,-11.75 -34.78,-17.351 -62.15,-36.281 -82.28,-56.738 l -13.22,46.41 c -3.16,11.09 -13.29,18.738 -24.82,18.738 l -142.5,0.02 c -10.41,0 -18.86,-8.442 -18.86,-18.852 V 246.25 c 0,-10.41 8.45,-18.852 18.86,-18.852 h 177.99 c 10.41,0 18.85,8.442 18.85,18.852 v 316.934 c 0,13.113 2.65,28.41 7.9,45.89 5.26,17.489 13.81,33.664 25.65,48.539 11.83,14.864 27.62,27.543 47.34,38.043 19.73,10.477 44.05,15.739 72.99,15.739 8.76,0 17.77,-0.45 26.97,-1.313 l 8.67,-1.082 c 10.36,-1.016 19.59,6.563 20.6,16.926 l 7.23,152.215 c 1.13,10.347 -6.34,19.66 -16.69,20.797"
         style="fill:#6ac32f;fill-opacity:1;fill-rule:nonzero;stroke:none"
         id="path3725"
         inkscape:connector-curvature="0" /><path
         d="m 2726.45,629.855 c 0.87,16.649 5.28,32.657 13.16,48.008 7.9,15.321 18.42,28.703 31.58,40.114 13.16,11.378 28.48,20.382 46.02,26.953 17.55,6.578 36.83,9.867 57.87,9.867 42.96,0 75.18,-12.293 96.66,-36.82 21.49,-24.559 32.24,-53.93 32.24,-88.122 z m 384.06,178.868 c -28.95,30.672 -63.59,54.121 -103.9,70.359 -40.35,16.215 -84.63,24.328 -132.84,24.328 -49.97,0 -96.46,-8.34 -139.42,-24.984 -42.97,-16.664 -80.22,-40.113 -111.8,-70.363 -31.56,-30.247 -56.55,-67.075 -74.95,-110.473 -18.43,-43.406 -27.63,-91.867 -27.63,-145.332 0,-55.242 9.42,-104.36 28.28,-147.301 18.86,-42.977 44.73,-79.137 77.6,-108.508 32.87,-29.39 71.21,-51.738 115.08,-67.078 43.84,-15.332 90.31,-23.012 139.42,-23.012 66.63,0 125.15,12.063 175.56,36.172 30.84,14.75 57.99,33.34 81.44,55.801 8.93,8.539 9.04,22.816 0.32,31.566 l -93.17,93.633 c -8.52,8.563 -22.58,8.934 -31,0.262 -12.38,-12.762 -26.94,-23.645 -43.72,-32.645 -23.69,-12.722 -52.61,-19.07 -86.79,-19.07 -19.31,0 -37.95,3.063 -55.91,9.203 -17.97,6.121 -34.19,14.672 -48.66,25.645 -14.47,10.957 -26.32,23.883 -35.51,38.801 -9.2,14.894 -14.7,31.562 -16.46,49.976 h 474.82 c 0.85,7.891 1.29,16.211 1.29,24.992 0,8.754 0,17.524 0,26.297 0,56.106 -8.11,106.078 -24.32,149.93 -16.25,43.844 -38.79,81.098 -67.73,111.801"
         style="fill:#6ac32f;fill-opacity:1;fill-rule:nonzero;stroke:none"
         id="path3727"
         inkscape:connector-curvature="0" /><path
         d="m 7359.92,629.855 c 0.87,16.649 5.27,32.657 13.16,48.008 7.9,15.321 18.41,28.703 31.57,40.114 13.16,11.378 28.48,20.382 46.02,26.953 17.55,6.578 36.84,9.867 57.88,9.867 42.95,0 75.17,-12.293 96.66,-36.82 21.48,-24.559 32.24,-53.93 32.24,-88.122 z m 384.05,178.868 c -28.94,30.672 -63.59,54.121 -103.9,70.359 -40.34,16.215 -84.63,24.328 -132.84,24.328 -49.96,0 -96.45,-8.34 -139.41,-24.984 -42.97,-16.664 -80.23,-40.113 -111.8,-70.363 -31.57,-30.247 -56.55,-67.075 -74.95,-110.473 -18.44,-43.406 -27.63,-91.867 -27.63,-145.332 0,-55.242 9.42,-104.36 28.28,-147.301 18.85,-42.977 44.73,-79.137 77.6,-108.508 32.86,-29.39 71.21,-51.738 115.07,-67.078 43.84,-15.332 90.31,-23.012 139.43,-23.012 66.63,0 125.15,12.063 175.56,36.172 30.83,14.75 57.98,33.34 81.44,55.801 8.93,8.539 9.03,22.816 0.32,31.566 l -93.17,93.633 c -8.52,8.563 -22.59,8.934 -31,0.262 -12.38,-12.762 -26.94,-23.645 -43.72,-32.645 -23.69,-12.722 -52.62,-19.07 -86.8,-19.07 -19.3,0 -37.94,3.063 -55.91,9.203 -17.97,6.121 -34.18,14.672 -48.66,25.645 -14.46,10.957 -26.31,23.883 -35.51,38.801 -9.2,14.894 -14.69,31.562 -16.45,49.976 h 474.81 c 0.85,7.891 1.3,16.211 1.3,24.992 0,8.754 0,17.524 0,26.297 0,56.106 -8.11,106.078 -24.33,149.93 -16.24,43.844 -38.78,81.098 -67.73,111.801"
         style="fill:#6ac32f;fill-opacity:1;fill-rule:nonzero;stroke:none"
         id="path3729"
         inkscape:connector-curvature="0" /><path
         d="m 445.262,1341.13 c -4.586,1.71 -9.469,2.66 -14.461,2.66 H 29.4883 C 13.2031,1343.79 0,1330.59 0,1314.3 V 895.852 l 445.262,445.278"
         style="fill:#0f9b4a;fill-opacity:1;fill-rule:nonzero;stroke:none"
         id="path3731"
         inkscape:connector-curvature="0" /><path
         d="M 8.63672,8.64063 C 13.9727,3.30078 21.3477,0 29.4883,0 H 418.438 c 16.289,0 29.492,13.2109 29.492,29.4883 V 447.918 L 8.63672,8.64063"
         style="fill:#0f9b4a;fill-opacity:1;fill-rule:nonzero;stroke:none"
         id="path3733"
         inkscape:connector-curvature="0" /><path
         d="M 895.855,895.852 V 3.76172 C 896.73,3.35938 897.617,3 898.52,2.66016 L 1343.78,447.922 895.855,895.852"
         style="fill:#1b523d;fill-opacity:1;fill-rule:nonzero;stroke:none"
         id="path3735"
         inkscape:connector-curvature="0" /><path
         d="m 447.93,447.918 v 892.052 c -0.883,0.41 -1.758,0.82 -2.668,1.16 L 0,895.855 V 29.4883 C 0,21.3398 3.30078,13.9688 8.63672,8.64063 L 447.93,447.918"
         style="fill:#6ac32f;fill-opacity:1;fill-rule:nonzero;stroke:none"
         id="path3737"
         inkscape:connector-curvature="0" /><path
         d="M 1343.78,447.922 V 1314.3 c 0,16.29 -13.2,29.49 -29.49,29.49 H 925.344 c -16.274,0 -29.461,-13.18 -29.489,-29.45 V 895.852 l 447.925,-447.93"
         style="fill:#6ac32f;fill-opacity:1;fill-rule:nonzero;stroke:none"
         id="path3739"
         inkscape:connector-curvature="0" /><path
         d="M 1343.78,447.922 898.52,2.66016 C 903.105,0.941406 907.988,0 912.984,0 h 401.306 c 16.29,0 29.49,13.2109 29.49,29.4883 V 447.922"
         style="fill:#6ac32f;fill-opacity:1;fill-rule:nonzero;stroke:none"
         id="path3741"
         inkscape:connector-curvature="0" /><path
         d="m 447.984,447.93 h -0.054 v -0.004 l 0.054,0.004"
         style="fill:#d2d2d2;fill-opacity:1;fill-rule:nonzero;stroke:none"
         id="path3743"
         inkscape:connector-curvature="0" /><path
         d="m 895.855,895.867 h -0.003 v -0.008 l 0.003,0.008"
         style="fill:#d2d2d2;fill-opacity:1;fill-rule:nonzero;stroke:none"
         id="path3745"
         inkscape:connector-curvature="0" /><path
         d="m 460.039,1331.68 c -3.527,3.52 -7.656,6.27 -12.109,8.29 V 447.918 L 883.742,12.1094 c 3.531,-3.52737 7.656,-6.32034 12.113,-8.34768 V 895.852 L 460.039,1331.68"
         style="fill:#0f9b4a;fill-opacity:1;fill-rule:nonzero;stroke:none"
         id="path3747"
         inkscape:connector-curvature="0" /></g></g></svg>